<?xml version="1.0" encoding="UTF-8"?>
<svg version="1.1" xmlns="http://www.w3.org/2000/svg" width="106" height="47">
<path d="M0 0 C2.9375 0.375 2.9375 0.375 4.9375 2.375 C5.60119664 9.56600052 2.33564514 14.84363585 -1.5625 20.5625 C-2.10132812 21.38041016 -2.64015625 22.19832031 -3.1953125 23.04101562 C-4.28822124 24.69980247 -5.38712721 26.35465456 -6.4921875 28.00537109 C-7.93810933 30.18729231 -9.33873242 32.38927286 -10.71875 34.61328125 C-11.11771484 35.25305908 -11.51667969 35.89283691 -11.92773438 36.55200195 C-12.30220703 37.15359131 -12.67667969 37.75518066 -13.0625 38.375 C-17.35071942 45.26214029 -17.35071942 45.26214029 -21.0625 47.375 C-23.28125 47.84375 -23.28125 47.84375 -25.5625 47.875 C-26.3153125 47.9059375 -27.068125 47.936875 -27.84375 47.96875 C-31.28864063 47.04687786 -32.12909231 45.36129057 -34.0625 42.375 C-35.77419211 38.99137214 -37.3033587 35.54040706 -38.8125 32.0625 C-39.22371094 31.13115234 -39.63492188 30.19980469 -40.05859375 29.24023438 C-41.06658927 26.95466314 -42.06763525 24.66630983 -43.0625 22.375 C-43.7225 22.375 -44.3825 22.375 -45.0625 22.375 C-46.96171719 24.48257373 -46.96171719 24.48257373 -48.0625 27.375 C-47.33384216 30.79969184 -46.00204427 33.49591145 -44.4375 36.625 C-43.0625 39.375 -43.0625 39.375 -43.0625 41.375 C-41.4125 42.035 -39.7625 42.695 -38.0625 43.375 C-39.81867202 45.81836977 -41.18267578 47.20710694 -44.19140625 47.78125 C-48.12726561 47.93686882 -50.31353144 47.95112966 -53.5 45.5 C-54.2734375 44.448125 -54.2734375 44.448125 -55.0625 43.375 C-55.7225 42.715 -56.3825 42.055 -57.0625 41.375 C-57.68125 42.179375 -58.3 42.98375 -58.9375 43.8125 C-61.06986424 46.38388041 -61.79726544 47.24574225 -65.05078125 47.578125 C-69.9342179 47.67661448 -73.04327177 47.48666057 -77.0625 44.375 C-74.0625 42.375 -74.0625 42.375 -72.1484375 41.61328125 C-69.12856744 39.82058685 -67.65761583 37.44655043 -65.6875 34.5625 C-64.95789063 33.52480469 -64.22828125 32.48710938 -63.4765625 31.41796875 C-61.71123906 28.48822143 -61.71123906 28.48822143 -62.8359375 25.67578125 C-63.24070313 24.91652344 -63.64546875 24.15726563 -64.0625 23.375 C-64.0625 22.385 -64.0625 21.395 -64.0625 20.375 C-64.7225 20.375 -65.3825 20.375 -66.0625 20.375 C-66.33199463 21.10114502 -66.60148926 21.82729004 -66.87915039 22.57543945 C-68.85302374 27.24521576 -71.73472175 31.32845101 -74.5 35.5625 C-75.08587891 36.47708984 -75.67175781 37.39167969 -76.27539062 38.33398438 C-76.84322266 39.20732422 -77.41105469 40.08066406 -77.99609375 40.98046875 C-78.51228271 41.77606201 -79.02847168 42.57165527 -79.56030273 43.39135742 C-81.41691902 45.84300822 -83.04818409 47.22874096 -86.1484375 47.67578125 C-90.97926047 47.70051243 -94.09015186 47.4503663 -98.0625 44.375 C-96.0625 42.375 -96.0625 42.375 -93.734375 41.17578125 C-90.31927279 38.87408225 -88.46594253 35.98430759 -86.3125 32.5625 C-85.88638428 31.90612549 -85.46026855 31.24975098 -85.02124023 30.57348633 C-82.82553053 27.18159128 -80.67483102 23.76140374 -78.51953125 20.34375 C-78.11637695 19.70800049 -77.71322266 19.07225098 -77.29785156 18.41723633 C-76.5313786 17.20514326 -75.771313 15.98896829 -75.01855469 14.76831055 C-73.20200875 11.88023996 -71.95515795 10.30343864 -69.0625 8.375 C-65.99686028 7.82961466 -63.12884798 7.83261621 -60.0625 8.375 C-57 10.75 -57 10.75 -55.0625 13.375 C-55.0625 14.035 -55.0625 14.695 -55.0625 15.375 C-54.4025 15.375 -53.7425 15.375 -53.0625 15.375 C-52.794375 14.776875 -52.52625 14.17875 -52.25 13.5625 C-51.02737928 11.31030393 -50.03695317 9.99541329 -48.0625 8.375 C-45.9765625 7.90625 -45.9765625 7.90625 -43.6875 7.875 C-42.56214844 7.82859375 -42.56214844 7.82859375 -41.4140625 7.78125 C-37.83456131 8.68504432 -36.40196807 10.56389517 -34.0625 13.375 C-32.64019149 15.77710589 -31.49349603 18.25702956 -30.375 20.8125 C-30.08044922 21.45509766 -29.78589844 22.09769531 -29.48242188 22.75976562 C-27.76319998 26.56523431 -26.31422555 30.38551019 -25.0625 34.375 C-24.4025 34.375 -23.7425 34.375 -23.0625 34.375 C-22.66720093 33.29822998 -22.66720093 33.29822998 -22.26391602 32.19970703 C-21.02714008 29.29186358 -19.56088135 26.82732532 -17.83984375 24.1796875 C-16.90881836 22.73529297 -16.90881836 22.73529297 -15.95898438 21.26171875 C-15.31251953 20.26785156 -14.66605469 19.27398438 -14 18.25 C-12.71449473 16.27014352 -11.43180667 14.28845415 -10.15234375 12.3046875 C-9.58378662 11.43054199 -9.01522949 10.55639648 -8.42944336 9.65576172 C-6.93170043 7.34335783 -6.93170043 7.34335783 -6.0625 4.375 C-4.311655 1.1497592 -3.72809592 0.45650154 0 0 Z " fill="#BE5739" transform="translate(98.0625,-0.375)"/>
<path d="M0 0 C3.0625 2.375 3.0625 2.375 5 5 C5 5.66 5 6.32 5 7 C5.66 7.33 6.32 7.66 7 8 C7.375 10.25 7.375 10.25 7 13 C2.02702703 17 2.02702703 17 -1 17 C-1.33 17.66 -1.66 18.32 -2 19 C-3.4606285 16.35261084 -4 15.10551666 -4 12 C-4.66 12 -5.32 12 -6 12 C-6.26949463 12.72614502 -6.53898926 13.45229004 -6.81665039 14.20043945 C-8.79052374 18.87021576 -11.67222175 22.95345101 -14.4375 27.1875 C-15.02337891 28.10208984 -15.60925781 29.01667969 -16.21289062 29.95898438 C-16.78072266 30.83232422 -17.34855469 31.70566406 -17.93359375 32.60546875 C-18.44978271 33.40106201 -18.96597168 34.19665527 -19.49780273 35.01635742 C-21.35441902 37.46800822 -22.98568409 38.85374096 -26.0859375 39.30078125 C-30.91676047 39.32551243 -34.02765186 39.0753663 -38 36 C-36 34 -36 34 -33.671875 32.80078125 C-30.25677279 30.49908225 -28.40344253 27.60930759 -26.25 24.1875 C-25.82388428 23.53112549 -25.39776855 22.87475098 -24.95874023 22.19848633 C-22.76303053 18.80659128 -20.61233102 15.38640374 -18.45703125 11.96875 C-18.05387695 11.33300049 -17.65072266 10.69725098 -17.23535156 10.04223633 C-16.4688786 8.83014326 -15.708813 7.61396829 -14.95605469 6.39331055 C-11.03706768 0.16263349 -7.10943857 -1.25753642 0 0 Z " fill="#32688F" transform="translate(38,8)"/>
<path d="M0 0 C2.71000247 0.28526342 4.55647772 0.69412256 6.8125 2.25 C8.50442006 4.74335587 8.48389268 6.02751641 8 9 C7.29875 9.969375 6.5975 10.93875 5.875 11.9375 C3.62407999 14.84562477 3.62407999 14.84562477 4.5625 18 C5.56501681 20.092209 6.58746653 22.17493307 7.625 24.25 C9 27 9 27 9 29 C11.475 29.99 11.475 29.99 14 31 C12.24382798 33.44336977 10.87982422 34.83210694 7.87109375 35.40625 C3.93523439 35.56186882 1.74896856 35.57612966 -1.4375 33.125 C-1.953125 32.42375 -2.46875 31.7225 -3 31 C-3.66 30.34 -4.32 29.68 -5 29 C-5.61875 29.804375 -6.2375 30.60875 -6.875 31.4375 C-9.00736424 34.00888041 -9.73476544 34.87074225 -12.98828125 35.203125 C-17.8717179 35.30161448 -20.98077177 35.11166057 -25 32 C-22 30 -22 30 -20.07421875 29.24609375 C-17.05959843 27.43505066 -15.70854113 24.99727286 -13.8125 22.0625 C-13.11769531 21.00160156 -12.42289063 19.94070312 -11.70703125 18.84765625 C-9.90400426 16.07290696 -9.90400426 16.07290696 -9 13 C-7.845 12.443125 -6.69 11.88625 -5.5 11.3125 C-3.12980128 10.0741921 -2.1883263 9.58086183 -1.3515625 7 C-1.14516841 5.00722947 -1.06565096 3.00235433 -1 1 C-0.67 0.67 -0.34 0.34 0 0 Z " fill="#1E5986" transform="translate(46,12)"/>
<path d="M0 0 C2.9375 0.375 2.9375 0.375 4.9375 2.375 C5.60125154 9.56659539 2.33504024 14.84281808 -1.5625 20.5625 C-2.3663916 21.78610229 -2.3663916 21.78610229 -3.18652344 23.03442383 C-4.27593294 24.69138263 -5.37191854 26.34403749 -6.47460938 27.9921875 C-8.80217244 31.48496356 -11.05477775 35.02438231 -13.3125 38.5625 C-14.5603716 40.50138314 -15.81134301 42.43823426 -17.0625 44.375 C-22.890625 40.78125 -22.890625 40.78125 -24.4375 37.125 C-24.64375 36.2175 -24.85 35.31 -25.0625 34.375 C-24.4025 34.375 -23.7425 34.375 -23.0625 34.375 C-22.79896729 33.65715332 -22.53543457 32.93930664 -22.26391602 32.19970703 C-21.02714008 29.29186358 -19.56088135 26.82732532 -17.83984375 24.1796875 C-17.21916016 23.21675781 -16.59847656 22.25382812 -15.95898438 21.26171875 C-15.31251953 20.26785156 -14.66605469 19.27398438 -14 18.25 C-12.71449473 16.27014352 -11.43180667 14.28845415 -10.15234375 12.3046875 C-9.58378662 11.43054199 -9.01522949 10.55639648 -8.42944336 9.65576172 C-6.93170043 7.34335783 -6.93170043 7.34335783 -6.0625 4.375 C-4.311655 1.1497592 -3.72809592 0.45650154 0 0 Z " fill="#C86243" transform="translate(98.0625,-0.375)"/>
<path d="M0 0 C3.0625 0.1875 3.0625 0.1875 5.0625 2.1875 C5.1904387 10.2476381 2.13459061 15.98581715 -2.9375 22.1875 C-3.9275 22.5175 -4.9175 22.8475 -5.9375 23.1875 C-10.9180886 17.96395585 -10.9180886 17.96395585 -11 14.6875 C-9.67350996 11.56634696 -7.85662654 8.97895679 -5.9375 6.1875 C-5.23927383 4.53380643 -4.56251395 2.87022986 -3.9375 1.1875 C-2.9375 0.1875 -2.9375 0.1875 0 0 Z " fill="#883B2B" transform="translate(97.9375,-0.1875)"/>
<path d="M0 0 C0.66 0 1.32 0 2 0 C2.86627399 1.59766103 3.71766465 3.20339944 4.5625 4.8125 C5.03816406 5.70582031 5.51382813 6.59914063 6.00390625 7.51953125 C7 10 7 10 6 13 C3.44515635 16.12512125 0.72326905 18.62946775 -3.2890625 19.4921875 C-7.9827633 19.63346946 -11.1948964 18.94588666 -15 16 C-12 14 -12 14 -10.0703125 13.2578125 C-7.03071719 11.41111497 -5.73844785 8.87210434 -3.875 5.875 C-2.63375586 3.88432544 -1.35355889 1.91607687 0 0 Z " fill="#B23D1A" transform="translate(36,28)"/>
<path d="M0 0 C1.4783226 2.95664519 1.06032783 5.74229737 1 9 C0.67 8.34 0.34 7.68 0 7 C-0.99 7 -1.98 7 -3 7 C-2.814375 8.051875 -2.62875 9.10375 -2.4375 10.1875 C-2.04920669 13.57119882 -2.11752515 15.76425888 -3 19 C-2.38125 18.34 -1.7625 17.68 -1.125 17 C1 15 1 15 3 15 C1.46457536 19.47832188 -0.60854052 23.80427026 -5 26 C-10.438918 26.55564585 -14.52479327 26.46467618 -19 23 C-17 21 -17 21 -14.69921875 19.84375 C-11.02601264 17.33470038 -9.15664635 14.2236818 -6.8125 10.5 C-6.37486328 9.82324219 -5.93722656 9.14648438 -5.48632812 8.44921875 C-4.67459053 7.1925746 -3.86717388 5.93312025 -3.06567383 4.66992188 C-2.06395769 3.10022235 -1.03290357 1.54935536 0 0 Z " fill="#468FC7" transform="translate(19,21)"/>
<path d="M0 0 C3.0625 2.375 3.0625 2.375 5 5 C5 5.66 5 6.32 5 7 C5.66 7.33 6.32 7.66 7 8 C7.375 10.25 7.375 10.25 7 13 C2.02702703 17 2.02702703 17 -1 17 C-1.33 17.66 -1.66 18.32 -2 19 C-3.4606285 16.35261084 -4 15.10551666 -4 12 C-4.66 11.67 -5.32 11.34 -6 11 C-6.268125 10.175 -6.53625 9.35 -6.8125 8.5 C-7.204375 7.675 -7.59625 6.85 -8 6 C-10.54775306 5.10613836 -10.54775306 5.10613836 -13 5 C-10.33716269 -0.89628262 -6.06808967 -0.96252457 0 0 Z " fill="#3B90CB" transform="translate(38,8)"/>
<path d="M0 0 C0.66 0.33 1.32 0.66 2 1 C2.99 1 3.98 1 5 1 C7.51461218 2.81052077 8.01027091 4.03594819 8.875 7.0625 C9.71223141 10.21795889 9.71223141 10.21795889 12.625 11.375 C13.40875 11.58125 14.1925 11.7875 15 12 C13.24382798 14.44336977 11.87982422 15.83210694 8.87109375 16.40625 C5.09596582 16.55551371 2.75271237 16.50180825 -0.4375 14.375 C-2.22887566 11.65210899 -3.13291381 9.13485006 -4 6 C-4.33 5.01 -4.66 4.02 -5 3 C-2.625 1.4375 -2.625 1.4375 0 0 Z " fill="#27455D" transform="translate(45,31)"/>
<path d="M0 0 C3.59889157 0.68189524 5.12929589 2.53813341 7.2265625 5.421875 C8.0390625 7.734375 8.0390625 7.734375 8.2265625 9.421875 C2.4765625 13.421875 2.4765625 13.421875 0.2265625 13.421875 C0.2265625 14.081875 0.2265625 14.741875 0.2265625 15.421875 C0.8865625 15.751875 1.5465625 16.081875 2.2265625 16.421875 C2.5565625 17.081875 2.8865625 17.741875 3.2265625 18.421875 C2.5665625 19.411875 1.9065625 20.401875 1.2265625 21.421875 C0.90042969 20.51824219 0.57429688 19.61460938 0.23828125 18.68359375 C-0.19871094 17.50410156 -0.63570312 16.32460938 -1.0859375 15.109375 C-1.72982422 13.35173828 -1.72982422 13.35173828 -2.38671875 11.55859375 C-4.25306279 7.33697611 -5.97882429 5.95161714 -9.7734375 3.421875 C-6.79629234 -0.1431141 -4.45918327 -0.14525027 0 0 Z " fill="#F3914D" transform="translate(56.7734375,7.578125)"/>
<path d="M0 0 C2.76238133 1.5538395 3.61002532 3.63230527 4.97265625 6.43359375 C6.03752726 8.45565189 6.03752726 8.45565189 9 10.125 C8 13.125 8 13.125 6 14.125 C4.45976004 14.19450541 2.91665012 14.20952357 1.375 14.1875 C0.14910156 14.17396484 0.14910156 14.17396484 -1.1015625 14.16015625 C-2.04128906 14.14275391 -2.04128906 14.14275391 -3 14.125 C-3.50615298 12.85660474 -4.00469099 11.58516898 -4.5 10.3125 C-4.7784375 9.60480469 -5.056875 8.89710937 -5.34375 8.16796875 C-6 6.125 -6 6.125 -6 3.125 C-4.02980536 1.15480536 -2.81406792 0.17587924 0 0 Z " fill="#481C1A" transform="translate(71,32.875)"/>
<path d="M0 0 C0.144375 0.61875 0.28875 1.2375 0.4375 1.875 C0.93152225 4.03258322 0.93152225 4.03258322 2 6 C2.039992 7.99960012 2.04346799 10.00047242 2 12 C2.99 12.33 3.98 12.66 5 13 C3.35 15.64 1.7 18.28 0 21 C-3.72450216 18.89484661 -5.6795921 17.75732776 -7.375 13.75 C-7.58125 12.8425 -7.7875 11.935 -8 11 C-7.34 11 -6.68 11 -6 11 C-5.7525 10.29875 -5.505 9.5975 -5.25 8.875 C-3.83911974 5.62997541 -2.02104602 2.89683263 0 0 Z " fill="#F38B58" transform="translate(81,23)"/>
<path d="M0 0 C3.10494556 0.89880003 4.65860176 1.52204247 6.5625 4.1875 C7.13070033 7.84021641 6.1717222 9.50071791 4.2265625 12.55078125 C3 14 3 14 0.75 14.9375 C0.1725 14.958125 -0.405 14.97875 -1 15 C-1 14.01 -1 13.02 -1 12 C-1.66 12 -2.32 12 -3 12 C-3.33 12.99 -3.66 13.98 -4 15 C-4.33 12.69 -4.66 10.38 -5 8 C-4.34 8 -3.68 8 -3 8 C-2.690625 6.865625 -2.38125 5.73125 -2.0625 4.5625 C-1 1 -1 1 0 0 Z " fill="#0F3956" transform="translate(26,12)"/>
<path d="M0 0 C3 0.25 3 0.25 5 2.25 C5.046875 4.34375 5.046875 4.34375 4.75 6.75 C4.61851563 7.94109375 4.61851563 7.94109375 4.484375 9.15625 C4 11.25 4 11.25 2 13.25 C1.67 12.59 1.34 11.93 1 11.25 C0.236875 11.29125 -0.52625 11.3325 -1.3125 11.375 C-4 11.25 -4 11.25 -7 9.25 C-4.70347003 0.39195584 -4.70347003 0.39195584 0 0 Z " fill="#2B5E94" transform="translate(98,-0.25)"/>
<path d="M0 0 C2.71000247 0.28526342 4.55647772 0.69412256 6.8125 2.25 C8.50442006 4.74335587 8.48389268 6.02751641 8 9 C6 12.3125 6 12.3125 4 15 C1 14 1 14 -0.75 10.8125 C-2.15804088 7.25573006 -2.0628985 4.72014476 -1 1 C-0.67 0.67 -0.34 0.34 0 0 Z " fill="#401C1B" transform="translate(46,12)"/>
<path d="M0 0 C0.99 2.97 1.98 5.94 3 9 C1.88625 9.3403125 1.88625 9.3403125 0.75 9.6875 C-2.51139591 11.24407532 -3.92894975 13.08518854 -6 16 C-6.185625 14.4221875 -6.185625 14.4221875 -6.375 12.8125 C-6.91140782 9.54041229 -7.63880035 6.99463924 -9 4 C-3.375 0 -3.375 0 0 0 Z " fill="#D85C35" transform="translate(66,17)"/>
<path d="M0 0 C2.5625 2.5 2.5625 2.5 4 5 C0.69845097 6.41494958 -2.40012965 7.7230869 -6 8 C-8.125 6.5625 -8.125 6.5625 -10 5 C-10.99 5 -11.98 5 -13 5 C-10.35299021 -0.86123596 -6.05054065 -1.0102146 0 0 Z " fill="#48A7DA" transform="translate(38,8)"/>
<path d="M0 0 C1.31625194 2.63250388 0.74813658 3.80179056 0.0625 6.625 C-0.13214844 7.44226562 -0.32679687 8.25953125 -0.52734375 9.1015625 C-0.68332031 9.72804688 -0.83929688 10.35453125 -1 11 C-1.99 11 -2.98 11 -4 11 C-4.66 12.98 -5.32 14.96 -6 17 C-4.35 17.33 -2.7 17.66 -1 18 C-1 18.33 -1 18.66 -1 19 C-6.50366792 19.32374517 -10.43672206 19.53286034 -15 16 C-12 14 -12 14 -10.078125 13.2578125 C-7.02021567 11.40697264 -5.65871571 8.86532128 -3.75 5.875 C-3.04359375 4.77929688 -2.3371875 3.68359375 -1.609375 2.5546875 C-1.07828125 1.71164063 -0.5471875 0.86859375 0 0 Z " fill="#E88360" transform="translate(36,28)"/>
<path d="M0 0 C2.56781377 1.50527014 2.95920868 3.2893032 3.8125 6.0625 C1.5025 7.3825 -0.8075 8.7025 -3.1875 10.0625 C-5.4352975 8.01016315 -6.1897242 7.05582739 -7.1875 4.0625 C-2.84433646 0.08126676 -2.84433646 0.08126676 0 0 Z " fill="#581006" transform="translate(71.1875,32.9375)"/>
<path d="M0 0 C0.33 0 0.66 0 1 0 C1.33 4.95 1.66 9.9 2 15 C0.68 15 -0.64 15 -2 15 C-2.185625 13.576875 -2.185625 13.576875 -2.375 12.125 C-2.71687177 8.91332809 -2.71687177 8.91332809 -5 7 C-4.34 7 -3.68 7 -3 7 C-2.67 5.35 -2.34 3.7 -2 2 C-1.34 2 -0.68 2 0 2 C0 1.34 0 0.68 0 0 Z " fill="#E96032" transform="translate(85,20)"/>
<path d="M0 0 C0.99 0.33 1.98 0.66 3 1 C2.88557539 2.60495567 2.75805306 4.20898119 2.625 5.8125 C2.55539063 6.70582031 2.48578125 7.59914063 2.4140625 8.51953125 C2 11 2 11 0 14 C-1.32 12.68 -2.64 11.36 -4 10 C-3.01 10 -2.02 10 -1 10 C-1 9.030625 -1 8.06125 -1 7.0625 C-1 3 -1 3 0 0 Z " fill="#EF891E" transform="translate(79,29)"/>
<path d="M0 0 C0.66 1.98 1.32 3.96 2 6 C1.401875 5.773125 0.80375 5.54625 0.1875 5.3125 C-0.8953125 5.1578125 -0.8953125 5.1578125 -2 5 C-3.77190909 6.35444301 -3.77190909 6.35444301 -5 8 C-5.99 7.67 -6.98 7.34 -8 7 C-8.33 6.01 -8.66 5.02 -9 4 C-3.375 0 -3.375 0 0 0 Z " fill="#F06E3A" transform="translate(66,17)"/>
<path d="M0 0 C1.4384798 0.06423833 2.87666999 0.14163547 4.3125 0.25 C2.3325 3.22 2.3325 3.22 0.3125 6.25 C-2.3275 5.59 -4.9675 4.93 -7.6875 4.25 C-5.84004374 0.30875998 -4.09551026 -0.02575793 0 0 Z " fill="#F8D4A8" transform="translate(54.6875,7.75)"/>
<path d="M0 0 C-1.3694303 3.99417171 -2.95300596 7.03764468 -6 10 C-9.25 10.3125 -9.25 10.3125 -12 10 C-4.28571429 0 -4.28571429 0 0 0 Z " fill="#4685B6" transform="translate(22,36)"/>
<path d="M0 0 C2.50738798 3.34318397 4.37627693 6.18425078 6 10 C5 13 5 13 1 15 C0.67 10.05 0.34 5.1 0 0 Z " fill="#8F4536" transform="translate(37,28)"/>
<path d="M0 0 C0 1.65 0 3.3 0 5 C-2.64 5.99 -5.28 6.98 -8 8 C-8.33 6.68 -8.66 5.36 -9 4 C-2.25 0 -2.25 0 0 0 Z " fill="#1866A4" transform="translate(46,21)"/>
<path d="M0 0 C-1.75 3.875 -1.75 3.875 -4 5 C-3.34 5.66 -2.68 6.32 -2 7 C-1.25 9 -1.25 9 -1 11 C-1.66 11.66 -2.32 12.32 -3 13 C-5.98514628 8.89542386 -6.2954439 6.02254631 -6 1 C-4 0 -4 0 0 0 Z " fill="#964431" transform="translate(69,32)"/>
<path d="M0 0 C0.33 0.66 0.66 1.32 1 2 C0.67 2.66 0.34 3.32 0 4 C0.66 4 1.32 4 2 4 C1.42415568 6.38564077 0.77772405 8.66682784 0 11 C-1.32 10.67 -2.64 10.34 -4 10 C-4.33 8.68 -4.66 7.36 -5 6 C-4.34 6 -3.68 6 -3 6 C-2.690625 5.195625 -2.38125 4.39125 -2.0625 3.5625 C-1 1 -1 1 0 0 Z " fill="#F6A954" transform="translate(78,28)"/>
<path d="M0 0 C0.99 0 1.98 0 3 0 C4.44430855 2.88861709 4.37688506 4.79647701 4 8 C1.5 10.875 1.5 10.875 -1 13 C-0.67 8.71 -0.34 4.42 0 0 Z " fill="#1769A8" transform="translate(16,28)"/>
<path d="M0 0 C0.66 0.33 1.32 0.66 2 1 C1.67 1.33 1.34 1.66 1 2 C1.66 2.66 2.32 3.32 3 4 C1.35 5.32 -0.3 6.64 -2 8 C-2.99 6.35 -3.98 4.7 -5 3 C-2.625 1.4375 -2.625 1.4375 0 0 Z " fill="#083B5F" transform="translate(45,31)"/>
<path d="M0 0 C0.33 0 0.66 0 1 0 C1.66 1.98 2.32 3.96 3 6 C4.98 6 6.96 6 9 6 C8.67 7.65 8.34 9.3 8 11 C7.34 10.34 6.68 9.68 6 9 C5.195625 9 4.39125 9 3.5625 9 C1 9 1 9 -2 7 C-1.34 4.69 -0.68 2.38 0 0 Z " fill="#95ACC4" transform="translate(93,2)"/>
<path d="M0 0 C1.31625194 2.63250388 0.74813658 3.80179056 0.0625 6.625 C-0.13214844 7.44226562 -0.32679687 8.25953125 -0.52734375 9.1015625 C-0.68332031 9.72804688 -0.83929688 10.35453125 -1 11 C-1.99 11 -2.98 11 -4 11 C-3.56179109 6.44262737 -3.14958831 3.42346555 0 0 Z " fill="#C8684A" transform="translate(36,28)"/>
<path d="M0 0 C0 1.32 0 2.64 0 4 C-3 6 -3 6 -5.625 5.75 C-6.40875 5.5025 -7.1925 5.255 -8 5 C-8.33 4.34 -8.66 3.68 -9 3 C-3.375 0 -3.375 0 0 0 Z " fill="#F79724" transform="translate(62,12)"/>
<path d="M0 0 C2.475 0.99 2.475 0.99 5 2 C4.1875 4.4375 4.1875 4.4375 3 7 C2.01 7.33 1.02 7.66 0 8 C-1.32 6.35 -2.64 4.7 -4 3 C-2.68 3.33 -1.36 3.66 0 4 C0 2.68 0 1.36 0 0 Z " fill="#99412C" transform="translate(92,15)"/>
<path d="M0 0 C4.455 0.99 4.455 0.99 9 2 C9 2.99 9 3.98 9 5 C6 6 6 6 3 6 C0 2.66666667 0 2.66666667 0 0 Z " fill="#501410" transform="translate(91,9)"/>
<path d="M0 0 C2.475 0.99 2.475 0.99 5 2 C4.67 2.66 4.34 3.32 4 4 C0.77026531 5.07657823 -2.64450899 5.46617188 -6 6 C-6.33 5.34 -6.66 4.68 -7 4 C-5.68 4.33 -4.36 4.66 -3 5 C-2.690625 4.360625 -2.38125 3.72125 -2.0625 3.0625 C-1 1 -1 1 0 0 Z " fill="#F5B461" transform="translate(58,9)"/>
<path d="M0 0 C0.33 0 0.66 0 1 0 C1.22142255 1.95689659 1.4267568 3.91561952 1.625 5.875 C1.74101563 6.96554688 1.85703125 8.05609375 1.9765625 9.1796875 C1.98429687 10.11039063 1.99203125 11.04109375 2 12 C1.34 12.66 0.68 13.32 0 14 C-2.125 13.625 -2.125 13.625 -4 13 C-3.525625 12.525625 -3.05125 12.05125 -2.5625 11.5625 C-0.31923904 7.88355203 -0.26260422 4.2378888 0 0 Z " fill="#AE4A2E" transform="translate(37,32)"/>
<path d="M0 0 C1.75 1 1.75 1 2.75 4 C-0.55 4.33 -3.85 4.66 -7.25 5 C-2.8597561 0 -2.8597561 0 0 0 Z " fill="#812612" transform="translate(71.25,33)"/>
<path d="M0 0 C0.33 0 0.66 0 1 0 C1 4.62 1 9.24 1 14 C0.67 14 0.34 14 0 14 C-0.1953125 11.94921875 -0.390625 9.8984375 -0.5859375 7.84765625 C-0.72257812 7.23792969 -0.85921875 6.62820312 -1 6 C-1.66 5.67 -2.32 5.34 -3 5 C-2.67 4.01 -2.34 3.02 -2 2 C-1.34 2 -0.68 2 0 2 C0 1.34 0 0.68 0 0 Z " fill="#D14C22" transform="translate(85,20)"/>
<path d="M0 0 C0.99 0.33 1.98 0.66 3 1 C2.67 4.3 2.34 7.6 2 11 C1.67 11 1.34 11 1 11 C1 8.36 1 5.72 1 3 C0.34 3 -0.32 3 -1 3 C-0.67 2.01 -0.34 1.02 0 0 Z " fill="#F37523" transform="translate(79,29)"/>
<path d="M0 0 C1.32 0.66 2.64 1.32 4 2 C3.67 2.99 3.34 3.98 3 5 C1.35 5 -0.3 5 -2 5 C-2 4.01 -2 3.02 -2 2 C-1.34 2 -0.68 2 0 2 C0 1.34 0 0.68 0 0 Z " fill="#42A2D4" transform="translate(99,0)"/>
<path d="M0 0 C0.99 0.33 1.98 0.66 3 1 C2.125 5.75 2.125 5.75 1 8 C0.01 7.67 -0.98 7.34 -2 7 C-1.34 4.69 -0.68 2.38 0 0 Z " fill="#C8471F" transform="translate(31,38)"/>
<path d="M0 0 C0.66 0 1.32 0 2 0 C2 0.99 2 1.98 2 3 C2.99 3.33 3.98 3.66 5 4 C4.01 5.485 4.01 5.485 3 7 C2.34 7 1.68 7 1 7 C0.67 4.69 0.34 2.38 0 0 Z " fill="#356282" transform="translate(23,24)"/>
<path d="M0 0 C0.391875 0.639375 0.78375 1.27875 1.1875 1.9375 C3.38472296 4.43778819 4.75791433 4.64950425 8 5 C7.67 5.66 7.34 6.32 7 7 C4.625 7.125 4.625 7.125 2 7 C0 5 0 5 -0.125 2.375 C-0.08375 1.59125 -0.0425 0.8075 0 0 Z " fill="#05113B" transform="translate(94,2)"/>
<path d="M0 0 C0.99 0 1.98 0 3 0 C3.33 1.65 3.66 3.3 4 5 C2.68 5 1.36 5 0 5 C0 3.35 0 1.7 0 0 Z " fill="#3BACE2" transform="translate(33,9)"/>
<path d="M0 0 C-2.62198774 2.15377564 -4.64404172 3.40072174 -8 4 C-5.97675095 -0.48005146 -4.79569304 -1.43870791 0 0 Z " fill="#A3CBE4" transform="translate(33,9)"/>
<path d="M0 0 C-4.75 4 -4.75 4 -7 4 C-7.33 3.01 -7.66 2.02 -8 1 C-3.375 -1.125 -3.375 -1.125 0 0 Z " fill="#0D4B79" transform="translate(47,30)"/>
<path d="M0 0 C0.33 0 0.66 0 1 0 C1 5.28 1 10.56 1 16 C0.67 16 0.34 16 0 16 C0 10.72 0 5.44 0 0 Z " fill="#C7DDEE" transform="translate(105,25)"/>
</svg>
